<svg width="26" height="26" viewBox="0 0 26 26" fill="none" xmlns="http://www.w3.org/2000/svg">
<path d="M13 25C16.375 25 20.5 22.859 20.5 20.5C20.5 19.375 19.887 18.692 19.055 18.232C16.535 16.837 10.595 16.354 6.938 18.245C6.102 18.677 5.5 19.381 5.5 20.5C5.5 22.859 9.625 25 13 25Z" stroke="white" stroke-width="2" stroke-miterlimit="10" stroke-linecap="round" stroke-linejoin="round"/>
<path d="M13 13C15.2091 13 17 11.2091 17 9C17 6.79086 15.2091 5 13 5C10.7909 5 9 6.79086 9 9C9 11.2091 10.7909 13 13 13Z" stroke="white" stroke-width="2" stroke-miterlimit="10"/>
<path d="M13 25C19.6274 25 25 19.6274 25 13C25 6.37258 19.6274 1 13 1C6.37258 1 1 6.37258 1 13C1 19.6274 6.37258 25 13 25Z" stroke="white" stroke-width="2" stroke-miterlimit="10"/>
</svg>
